<svg width="100" height="100" viewBox="0 0 100 100" fill="none" xmlns="http://www.w3.org/2000/svg">
<g clip-path="url(#clip0_494_7182)">
<path d="M210.222 28.1528V38.8528H208.696C203.931 38.8528 195.604 42.1888 188.943 46.7288L184.779 49.6008V92.5878H173.677V28.1998H184.779V36.9548L187.925 35.1488C194.124 31.5818 200.878 29.2658 207.817 28.4788L210.222 28.1528ZM232.427 28.1988V92.5888H221.787V28.1988H232.427ZM134.357 6.42784V28.1988H160.262V38.8538H134.31L134.449 55.8538L134.588 72.9008C135.668 75.5638 137.286 77.6678 139.445 79.2118C142.683 81.5278 145.277 81.5088 147.54 81.5278C149.76 81.5588 151.78 80.6138 153.6 78.6908L163.269 78.7488C163.302 80.2488 163.149 81.5608 162.806 82.6858C159.799 92.1828 145.652 95.3078 135.282 89.1718C130.193 86.1608 125.336 80.1388 123.948 72.9588V72.5438L123.949 72.1918V72.1278L123.95 71.8848V71.8268L123.951 71.6588V71.6038L123.952 71.3868V70.0598L123.95 69.8778C123.942 68.1828 123.91 64.8408 123.81 56.0858L123.624 38.8538H107.064V28.1988H123.717V6.42784H134.357ZM255.787 28.2568L267.677 52.6118C274.06 65.9518 279.427 76.8388 279.565 76.8388C279.605 76.8388 280.086 75.9208 280.905 74.2918L281.092 73.9188C283.15 69.8108 287.061 61.7928 291.454 52.6118L302.973 28.2568H315C310.25 38.1318 305.1 48.8438 299.55 60.3938L284.469 92.1828H274.754L259.396 60.1628L243.76 28.2568H255.787ZM223.823 0.822843C226.275 -0.289157 227.987 -0.289157 230.439 0.914843C233.307 2.30484 234.926 5.17684 234.649 8.46484C234.417 11.4308 233.075 13.5148 230.577 14.7648C227.293 16.4328 223.5 15.6918 221.187 12.9588C217.762 8.83584 219.011 2.99984 223.823 0.822843ZM42.531 5.32684C26.85 8.33784 12 20.8438 12 43.0228C12 55.3558 16.256 61.6448 18.338 64.6558C19.494 66.3698 51.274 99.9998 51.737 99.9998C51.783 99.9998 54.929 96.7568 58.676 92.7738L65.569 85.5938L50.765 70.6778C37.443 57.2438 32.817 51.8818 32.817 44.6438C32.817 34.9738 40.681 25.7088 52.708 25.7088C60.341 25.7088 66.355 29.8788 69.593 35.4368C71.829 39.2748 72.831 47.0168 69.131 53.0398C68.051 55.2018 64.983 58.7498 59.925 63.6828L66.771 70.5388L73.618 77.3938L78.614 72.0208C85.46 64.7008 87.449 61.6448 89.67 54.9738C94.018 42.0498 90.78 27.5508 81.25 17.4528C77.457 13.4228 74.265 11.0598 69.64 8.74284C63.857 5.82484 60.156 4.94484 52.708 4.80584C49.146 4.71384 43.178 5.23384 42.531 5.32684Z" fill="#0097FA"/>
</g>
<defs>
<clipPath id="clip0_494_7182">
<rect width="100" height="100" fill="white"/>
</clipPath>
</defs>
</svg>
