<svg width="303" height="100" viewBox="0 0 303 100" fill="none" xmlns="http://www.w3.org/2000/svg">
<g clip-path="url(#clip0_494_7176)">
<path d="M198.222 28.1528V38.8528H196.696C191.931 38.8528 183.604 42.1888 176.943 46.7288L172.779 49.6008V92.5878H161.677V28.1998H172.779V36.9548L175.925 35.1488C182.124 31.5818 188.878 29.2658 195.817 28.4788L198.222 28.1528ZM220.427 28.1988V92.5888H209.787V28.1988H220.427ZM122.357 6.42784V28.1988H148.262V38.8538H122.31L122.449 55.8538L122.588 72.9008C123.668 75.5638 125.286 77.6678 127.445 79.2118C130.683 81.5278 133.277 81.5088 135.54 81.5278C137.76 81.5588 139.78 80.6138 141.6 78.6908L151.269 78.7488C151.302 80.2488 151.149 81.5608 150.806 82.6858C147.799 92.1828 133.652 95.3078 123.282 89.1718C118.193 86.1608 113.336 80.1388 111.948 72.9588V72.5438L111.949 72.1918V72.1278L111.95 71.8848V71.8268L111.951 71.6588V71.6038L111.952 71.3868V70.0598L111.95 69.8778C111.942 68.1828 111.91 64.8408 111.81 56.0858L111.624 38.8538H95.064V28.1988H111.717V6.42784H122.357ZM243.787 28.2568L255.677 52.6118C262.06 65.9518 267.427 76.8388 267.565 76.8388C267.605 76.8388 268.086 75.9208 268.905 74.2918L269.092 73.9188C271.15 69.8108 275.061 61.7928 279.454 52.6118L290.973 28.2568H303C298.25 38.1318 293.1 48.8438 287.55 60.3938L272.469 92.1828H262.754L247.396 60.1628L231.76 28.2568H243.787ZM211.823 0.822843C214.275 -0.289157 215.987 -0.289157 218.439 0.914843C221.307 2.30484 222.926 5.17684 222.649 8.46484C222.417 11.4308 221.075 13.5148 218.577 14.7648C215.293 16.4328 211.5 15.6918 209.187 12.9588C205.762 8.83584 207.011 2.99984 211.823 0.822843ZM30.531 5.32684C14.85 8.33784 0 20.8438 0 43.0228C0 55.3558 4.256 61.6448 6.338 64.6558C7.494 66.3698 39.274 99.9998 39.737 99.9998C39.783 99.9998 42.929 96.7568 46.676 92.7738L53.569 85.5938L38.765 70.6778C25.443 57.2438 20.817 51.8818 20.817 44.6438C20.817 34.9738 28.681 25.7088 40.708 25.7088C48.341 25.7088 54.355 29.8788 57.593 35.4368C59.829 39.2748 60.831 47.0168 57.131 53.0398C56.051 55.2018 52.983 58.7498 47.925 63.6828L54.771 70.5388L61.618 77.3938L66.614 72.0208C73.46 64.7008 75.449 61.6448 77.67 54.9738C82.018 42.0498 78.78 27.5508 69.25 17.4528C65.457 13.4228 62.265 11.0598 57.64 8.74284C51.857 5.82484 48.156 4.94484 40.708 4.80584C37.146 4.71384 31.178 5.23384 30.531 5.32684Z" fill="white"/>
</g>
<defs>
<clipPath id="clip0_494_7176">
<rect width="303" height="100" fill="white"/>
</clipPath>
</defs>
</svg>
